<svg id="visual" viewBox="0 0 900 600" width="900" height="600" xmlns="http://www.w3.org/2000/svg" xmlns:xlink="http://www.w3.org/1999/xlink" version="1.1"><g><g transform="translate(67 123)"><path d="M0 -120.8L85.4 -85.4L120.8 0L85.4 85.4L0 120.8L-85.4 85.4L-120.8 0L-85.4 -85.4Z" fill="#ffdf20"></path></g><g transform="translate(467 453)"><path d="M0 -103L72.8 -72.8L103 0L72.8 72.8L0 103L-72.8 72.8L-103 0L-72.8 -72.8Z" fill="#ffdf20"></path></g><g transform="translate(266 263)"><path d="M0 -117L82.7 -82.7L117 0L82.7 82.7L0 117L-82.7 82.7L-117 0L-82.7 -82.7Z" fill="#ffdf20"></path></g><g transform="translate(665 203)"><path d="M0 -61L43.1 -43.1L61 0L43.1 43.1L0 61L-43.1 43.1L-61 0L-43.1 -43.1Z" fill="#ffdf20"></path></g><g transform="translate(65 585)"><path d="M0 -57L40.3 -40.3L57 0L40.3 40.3L0 57L-40.3 40.3L-57 0L-40.3 -40.3Z" fill="#ffdf20"></path></g><g transform="translate(447 20)"><path d="M0 -86L60.8 -60.8L86 0L60.8 60.8L0 86L-60.8 60.8L-86 0L-60.8 -60.8Z" fill="#ffdf20"></path></g><g transform="translate(776 544)"><path d="M0 -57L40.3 -40.3L57 0L40.3 40.3L0 57L-40.3 40.3L-57 0L-40.3 -40.3Z" fill="#ffdf20"></path></g><g transform="translate(884 84)"><path d="M0 -78L55.2 -55.2L78 0L55.2 55.2L0 78L-55.2 55.2L-78 0L-55.2 -55.2Z" fill="#ffdf20"></path></g></g></svg>